<svg xmlns="http://www.w3.org/2000/svg" xmlns:xlink="http://www.w3.org/1999/xlink" viewBox="0 0 1492.85 922.58"><defs><style>.cls-1{fill:none;}.cls-2{fill:#f8f7fd;}.cls-3{clip-path:url(#clip-path);}.cls-4{opacity:0.1;}.cls-4,.cls-6,.cls-7{isolation:isolate;}.cls-5{fill:#774fe5;}.cls-6{opacity:0.15;}.cls-7{opacity:0.1;}</style><clipPath id="clip-path"><path class="cls-1" d="M1381.85,622.83Q1069,635.75,756.14,636.51q-327.1.79-654.29-11.73V34a2967.32,2967.32,0,0,0,658.85,69.8A2967.26,2967.26,0,0,0,1381.85,34Z"/></clipPath></defs><title>background-2</title><g id="Layer_2" data-name="Layer 2"><g id="Layer_13" data-name="Layer 13"><path class="cls-2" d="M1381.85,622.83Q1069,635.75,756.14,636.51q-327.1.79-654.29-11.73V34a2967.32,2967.32,0,0,0,658.85,69.8A2967.26,2967.26,0,0,0,1381.85,34Z"/><path class="cls-2" d="M1282.62,78.07c7.72,0,7.73-12,0-12s-7.74,12,0,12Z"/><path class="cls-2" d="M1282.62,82c7.72,0,7.73-12,0-12s-7.74,12,0,12Z"/><g class="cls-3"><g class="cls-4"><path class="cls-5" d="M748.63,636.51c-25-43.18-76.36-65.36-126.1-69.37s-99.27,7.15-148.43,15.74-100.47,14.56-148.36.52c-41.16-12.06-76.57-37.94-112.92-60.69s-76.59-43.32-119.48-42.57S5.37,509.71,0,552.26L148.25,922.58Z"/></g><path class="cls-2" d="M1245.54,60.32l25.56,55.21q6.6,14.25,13.19,28.5c3.5,7.53,7.39,14.06,15.81,16.61,14,4.26,33.71.66,42.38-11.85,4.66-6.73,7-14.89,11.44-21.83a90.12,90.12,0,0,1,17.17-19.64c5.85-5.07-2.67-13.53-8.48-8.49a103.68,103.68,0,0,0-26.52,36.37c-3.07,6.85-6.43,11.64-14,13.6-5.75,1.49-14.84,2.47-20.28-.32-3-1.52-4.31-4.53-5.7-7.4-1.93-4-3.71-8-5.57-12L1279,104.13,1255.9,54.26c-3.24-7-13.59-.91-10.36,6.06Z"/><g class="cls-6"><path class="cls-5" d="M1264.55,2.36c-34.64-9.41-69.92,11.51-82.26,24.07s-21.15,29.74-19.61,47.29c2.92,33,38.8,52.23,71.11,59.68s68.48,10.7,91.61,34.45c14.39,14.78,21.39,35.56,35.88,50.25,28.85,29.22,82.48,23.3,109.48-7.64S1499,131.28,1480,94.9s-55.19-61.58-94-75.06S1305.6,3.43,1264.55,2.36"/></g><g class="cls-7"><path class="cls-5" d="M1252.16,3.3c-34.59-9.63-71.06,16.32-84,31.54s-22.57,35.7-21.72,56.19c1.59,38.57,37,59.61,69.36,67s68.71,9.74,91.09,36.62c13.93,16.73,20.15,40.8,34.18,57.41,27.94,33.06,82.33,23.94,110.85-13.41s31.75-93.9,14-135.75-53.22-69.89-91.83-84.1-80.49-16-121.9-15.53"/></g></g></g></g></svg>