<svg xmlns="http://www.w3.org/2000/svg" xmlns:xlink="http://www.w3.org/1999/xlink" viewBox="0 0 1335.91 305.24"><defs><style>.cls-1{fill:none;}.cls-2{fill:#f8f7fd;}.cls-3,.cls-6{fill:#774fe5;}.cls-3,.cls-5{opacity:0.1;isolation:isolate;}.cls-4{clip-path:url(#clip-path);}</style><clipPath id="clip-path"><rect class="cls-1" x="55.91" y="11.65" width="1280" height="293.59"/></clipPath></defs><title>background-3</title><g id="Layer_2" data-name="Layer 2"><g id="Layer_13" data-name="Layer 13"><rect class="cls-2" x="55.91" y="11.65" width="1280" height="293.59"/><polygon class="cls-3" points="1233.1 159.44 1238.82 123.91 1265.65 147.9 1301.19 153.63 1277.19 180.46 1271.47 216 1244.64 192 1209.1 186.27 1233.1 159.44"/><polygon class="cls-3" points="1190.67 107.51 1193.81 86.87 1209.49 100.65 1230.13 103.8 1216.35 119.48 1213.2 140.12 1197.52 126.34 1176.88 123.19 1190.67 107.51"/><polygon class="cls-3" points="1190.67 107.51 1193.81 86.87 1209.49 100.65 1230.13 103.8 1216.35 119.48 1213.2 140.12 1197.52 126.34 1176.88 123.19 1190.67 107.51"/><g class="cls-4"><g class="cls-5"><path class="cls-6" d="M7.75,196.86a85.59,85.59,0,0,0,61.49,7.68,85.62,85.62,0,0,0,50.26-36.26c14.22-22.14,17.93-50.49,35.39-70.18,16-18,40.63-25.48,64.37-29.5s48.3-5.52,70.43-15S331.62,24.07,332,0L0,1.41Z"/></g></g></g></g></svg>